<svg xmlns="http://www.w3.org/2000/svg" clip-rule="evenodd" fill-rule="evenodd" image-rendering="optimizeQuality" shape-rendering="geometricPrecision" text-rendering="geometricPrecision" version="1.1" viewBox="0 0 2048 2048" xml:space="preserve" id="svg22"><defs id="defs6"><style type="text/css" id="style4">.fil0{fill:none}.fil1{fill:#212121;fill-rule:nonzero}</style></defs><path class="fil0" fill="none" id="rect8" d="M0 0h2048v2048H0z"/><path class="fil0" fill="none" id="rect10" d="M256 256h1536v1536H256z"/><path class="fil1" d="m360.4 1696.1 292.07-568.85-.048-.025c9.738-19.23 24.198-36.673 41.295-49.147 17.288-12.612 37.29-20.324 58.265-20.324h671.8v-95.728c0-12.239-4.73-23.301-12.474-31.602-8.102-8.685-19.41-14.465-32.073-15.628l5.75-63.501c28.838 2.65 54.6 15.826 73.073 35.629 18.454 19.781 29.725 46.075 29.725 75.102v95.728h256.91l.25.125c13.84.127 27.184 3.625 38.79 9.964 11.799 6.44 21.885 15.829 29.05 27.645 7.126 11.751 11.23 25.648 11.09 41.115-.135 14.832-4.164 30.938-13.266 47.607h-.01l-271.26 506.56.045.024c-9.355 17.739-26.757 35.502-46.371 48.226-19.195 12.451-41.441 20.808-61.894 20.808v-.125l-1088.4.156v.125a119.57 119.57 0 0 1-45.171-8.864c-14.206-5.792-27.315-14.374-38.543-25.402-11.211-11.065-19.955-24.085-25.882-38.225-5.945-14.18-9.09-29.454-9.09-44.986h.125l.157-821.17h-.125c0-32.414 13.372-61.848 35.003-83.198 21.454-21.175 51.01-34.287 83.604-34.287v.125l79.552-.147v63.751l-79.552.147v.125c-15.248 0-28.977 6.038-38.855 15.787-9.734 9.607-15.751 22.94-15.751 37.697h-.125l-.157 821.17h.125c0 7.15 1.415 14.107 4.089 20.485a52.94 52.94 0 0 0 11.63 17.225c5.095 5.006 11.15 8.943 17.793 11.652 6.595 2.69 13.775 4.114 21.17 4.114v.125h17.713zm348.9-540-277.25 539.99 999.07-.143v-.125c7.722 0 17.639-4.139 27.144-10.305 10.974-7.119 20.239-16.163 24.622-24.476l.124-.125 271.47-506.96.125-.25c3.799-6.956 5.472-12.834 5.516-17.608.028-3.102-.654-5.66-1.839-7.614-1.147-1.891-2.907-3.474-5.05-4.644-2.51-1.37-5.443-2.144-8.54-2.21v.121h-992.71c-6.925 0-14.11 2.97-20.765 7.824-8.781 6.408-16.42 15.785-21.795 26.396l-.125.125z" fill="#212121" fill-rule="nonzero" id="path12"/><path class="fil1" d="m448.12 1395.7.008-1012.6h-.125c0-27.576 11.56-55.66 29.86-76.38 18.392-20.822 43.837-34.782 72.06-34.782h552c8.785 0 17.54 1.944 25.715 5.583 7.917 3.521 15.152 8.738 21.172 15.396l178.25 197.13.054-.05c5.403 5.877 9.603 12.73 12.468 20.157 2.904 7.535 4.423 15.413 4.423 23.231h-.125v482.59h-63.751v-482.59h-.125c0-.22.077-.16.09-.18l-.105-.208-178.18-197.05h-551.87c-8.74 0-17.421 5.23-24.311 13.03-8.34 9.444-13.61 22.004-13.61 34.13h-.125l-.008 1012.6h-63.75zm653.52-1059.9v.008c-.01-.017-.142-.169-.079-.1zm0 .008v.002c-.11-.048-.053-.02.038.026l-.033-.037z" fill="#212121" fill-rule="nonzero" id="path14"/><path class="fil1" d="M672 576c-17.673 0-32.001 14.328-32.001 32.001s14.328 32.001 32.001 32.001h448c17.673 0 32.001-14.328 32.001-32.001S1137.673 576 1120 576z" fill="#212121" fill-rule="nonzero" id="path16"/><path class="fil1" d="M672 736c-17.673 0-32.001 14.328-32.001 32.001s14.328 32.001 32.001 32.001h448c17.673 0 32.001-14.328 32.001-32.001S1137.673 736 1120 736z" fill="#212121" fill-rule="nonzero" id="path18"/><path class="fil1" d="M672 896c-17.673 0-32.001 14.328-32.001 32.001s14.328 32.001 32.001 32.001h448c17.673 0 32.001-14.328 32.001-32.001S1137.673 896 1120 896z" fill="#212121" fill-rule="nonzero" id="path20"/></svg>