<svg xmlns="http://www.w3.org/2000/svg" width="645.8" height="633.819" viewBox="0 0 170.868 167.698" xmlns:v="https://vecta.io/nano"><style><![CDATA[.B{fill:#000}.C{font-family:sans-serif}.D{font-weight:400}.E{font-size:2.908px}.F{fill-rule:evenodd}.G{stroke:#000}.H{font-size:5.815px}.I{overflow:visible}.J{fill-opacity:1}.K{stroke-width:.625}.L{stroke-linejoin:round}.M{stroke-opacity:1}.N{font-size:6.35px}.O{fill:#5f8dd3}.P{stroke-width:.244}]]></style><defs><marker id="A" refX="0" refY="0" orient="auto" class="I"><path transform="matrix(-1.1 0 0 -1.1 -1.1 0)" d="M8.719 4.034L-2.207.016 8.719-4.002c-1.745 2.372-1.735 5.617 0 8.035z" class="B F G J K L M"/></marker><marker id="B" refX="0" refY="0" orient="auto" class="I"><path transform="matrix(-1.1 0 0 -1.1 -1.1 0)" d="M8.719 4.034L-2.207.016 8.719-4.002c-1.745 2.372-1.735 5.617 0 8.035z" class="B F G J K L M"/></marker><marker id="C" refX="0" refY="0" orient="auto" class="I"><path transform="matrix(-1.1 0 0 -1.1 -1.1 0)" d="M8.719 4.034L-2.207.016 8.719-4.002c-1.745 2.372-1.735 5.617 0 8.035z" class="B F G J K L M"/></marker><marker id="D" refX="0" refY="0" orient="auto" class="I"><path transform="matrix(-1.1 0 0 -1.1 -1.1 0)" d="M8.719 4.034L-2.207.016 8.719-4.002c-1.745 2.372-1.735 5.617 0 8.035z" class="B F G J K L M"/></marker><marker id="E" refX="0" refY="0" orient="auto" class="I"><path transform="matrix(-1.1 0 0 -1.1 -1.1 0)" d="M8.719 4.034L-2.207.016 8.719-4.002c-1.745 2.372-1.735 5.617 0 8.035z" class="B F G J K L M"/></marker><marker id="F" refX="0" refY="0" orient="auto" class="I"><path transform="matrix(-1.1 0 0 -1.1 -1.1 0)" d="M8.719 4.034L-2.207.016 8.719-4.002c-1.745 2.372-1.735 5.617 0 8.035z" class="B F G J K L M"/></marker></defs><path d="M41.873 146.842h25.444v15.857H41.873zm0-47.337h25.444v15.857H41.873z" class="F O"/><text xml:space="preserve" style="white-space:pre" transform="matrix(.766511 0 0 .766511 39.384799 99.65699)" font-size="8.284" class="B C"><tspan x="17.373" y="73.928">GUI</tspan></text><text xml:space="preserve" x="72.617" y="111.012" class="B C N"><tspan x="46.672" y="106.647" font-weight="normal">client</tspan></text><path d="M36.571 50.001h36.048v15.857H36.571z" class="F O"/><text xml:space="preserve" x="68.491" y="61.026" class="B C N"><tspan x="42.546" y="56.661" font-weight="normal">provider</tspan></text><g fill="none" class="G P"><path d="M48.828 96.775V75.213" marker-end="url(#A)"/><path d="M60.886 74.788v21.563" marker-end="url(#B)"/></g><path d="M34.441 5h40.307v15.857H34.441z" class="F O"/><text xml:space="preserve" x="66.212" y="23.74" class="B C N"><tspan x="40.267" y="19.375" font-weight="normal">fileserver</tspan></text><text xml:space="preserve" x="43.624" y="88.473" class="B C H"><tspan x="17.679" y="84.108" font-weight="normal" class="E">[%request-upload</tspan></text><text xml:space="preserve" x="40.858" y="133.267" class="B C H"><tspan x="14.913" y="128.902" font-weight="normal" class="E">[%request-upload </tspan></text><text xml:space="preserve" x="42.385" y="137.048" class="B C H"><tspan x="16.44" y="132.683" font-weight="normal" class="E">=threadid =filename ]</tspan></text><text xml:space="preserve" x="52.106" y="92.564" class="B C H"><tspan x="26.161" y="88.199" font-weight="normal" class="E">=filename ]</tspan></text><text xml:space="preserve" x="30.698" y="40.59" class="B C H"><tspan x="4.753" y="36.225" font-weight="normal" class="E">https://fileserver.vps.com</tspan></text><g fill="none" class="G P"><path d="M50.82 140.639v-21.563" marker-end="url(#C)"/><path d="M62.878 118.652v21.563" marker-end="url(#D)"/><path d="M48.693 47.56V25.997" marker-end="url(#E)"/><path d="M60.751 25.573v21.563" marker-end="url(#F)"/></g><text xml:space="preserve" x="30.977" y="43.816" class="B C H"><tspan x="5.032" y="39.451" font-weight="normal" class="E">/upload/new/&lt;key&gt;/&lt;bytes&gt;</tspan></text><text xml:space="preserve" x="93.889" y="40.979" class="B C H"><tspan x="67.944" y="36.614" font-weight="normal" class="E">200 OK</tspan></text><text xml:space="preserve" x="93.011" y="90.701" class="B C E"><tspan x="67.066" y="86.336">[%lfs-provider-server-update </tspan></text><text xml:space="preserve" x="93.714" y="95.735" class="B C E"><tspan x="67.769" y="91.37">response=&amp;quot;https://fileserver.vps.com/upload/new/0vLONG.KEY&amp;quot;]</tspan></text><text xml:space="preserve" x="92.64" y="133.97" class="B C E"><tspan x="66.695" y="129.605">{success: true, url=&amp;quot;https://fileserver.vps.com/upload/new/0vLONG.KEY&amp;quot;}</tspan></text><text xml:space="preserve" x="70.963" y="67.956" class="B C N"><tspan x="45.018" y="63.591" font-weight="normal">~ship</tspan></text><text xml:space="preserve" x="67.595" y="16.439" class="B C N"><tspan x="41.65" y="12.074" font-weight="normal">rust http</tspan></text><text xml:space="preserve" x="72.249" y="117.153" class="B C N"><tspan x="46.304" y="112.788" font-weight="normal">~ship</tspan></text><text xml:space="preserve" style="white-space:pre" transform="matrix(.766511 0 0 .766511 31.498857 99.67916)" font-size="8.284" class="B C"><tspan x="17.373" y="73.928">JS</tspan></text></svg>